HIERARCHY
ROOT Hips
{
	OFFSET -14.64140 90.27770 -84.91600
	CHANNELS 6 Xposition Yposition Zposition Zrotation Xrotation Yrotation
	JOINT Spine
	{
		OFFSET 0.00000 13.20850 -1.60436
		CHANNELS 3 Zrotation Xrotation Yrotation
		JOINT Spine1
		{
			OFFSET 0.00000 8.61716 0.00000
			CHANNELS 3 Zrotation Xrotation Yrotation
			JOINT Spine2
			{
				OFFSET 0.00000 8.61717 0.00000
				CHANNELS 3 Zrotation Xrotation Yrotation
				JOINT Spine3
				{
					OFFSET 0.00000 8.61717 0.00000
					CHANNELS 3 Zrotation Xrotation Yrotation
					JOINT Neck
					{
						OFFSET 0.00000 11.07920 1.10792
						CHANNELS 3 Zrotation Xrotation Yrotation
						JOINT Neck1
						{
							OFFSET 0.00000 7.08032 0.00000
							CHANNELS 3 Zrotation Xrotation Yrotation
							JOINT Head
							{
								OFFSET 0.00000 7.08031 0.00000
								CHANNELS 3 Zrotation Xrotation Yrotation
								End site
								{
									OFFSET 0.00000 0.00000 0.00000
								}
							}
						}
					}
					JOINT RightShoulder
					{
						OFFSET -0.01000 7.91373 5.19711
						CHANNELS 3 Zrotation Xrotation Yrotation
						JOINT RightArm
						{
							OFFSET -18.41580 0.00000 0.00000
							CHANNELS 3 Zrotation Xrotation Yrotation
							JOINT RightForeArm
							{
								OFFSET -29.11090 0.00000 0.00000
								CHANNELS 3 Zrotation Xrotation Yrotation
								JOINT RightHand
								{
									OFFSET -24.65040 0.00000 0.00000
									CHANNELS 3 Zrotation Xrotation Yrotation
									JOINT RightHandThumb1
									{
										OFFSET -5.35114 -0.85590 3.97906
										CHANNELS 3 Zrotation Xrotation Yrotation
										JOINT RightHandThumb2
										{
											OFFSET -4.52789 0.00000 0.00000
											CHANNELS 3 Zrotation Xrotation Yrotation
											JOINT RightHandThumb3
											{
												OFFSET -2.46976 0.00000 0.00000
												CHANNELS 3 Zrotation Xrotation Yrotation
												End site
												{
													OFFSET 0.00000 0.00000 0.00000
												}
											}
										}
									}
									JOINT RightHandIndex1
									{
										OFFSET -14.26970 0.00000 2.88139
										CHANNELS 3 Zrotation Xrotation Yrotation
										JOINT RightHandIndex2
										{
											OFFSET -5.48836 0.00000 0.00000
											CHANNELS 3 Zrotation Xrotation Yrotation
											JOINT RightHandIndex3
											{
												OFFSET -3.01859 0.00000 0.00000
												CHANNELS 3 Zrotation Xrotation Yrotation
												End site
												{
													OFFSET 0.00000 0.00000 0.00000
												}
											}
										}
									}
									JOINT RightHandMiddle1
									{
										OFFSET -14.26970 0.00000 -0.09147
										CHANNELS 3 Zrotation Xrotation Yrotation
										JOINT RightHandMiddle2
										{
											OFFSET -6.17441 0.00000 0.00000
											CHANNELS 3 Zrotation Xrotation Yrotation
											JOINT RightHandMiddle3
											{
												OFFSET -3.56743 0.00000 0.00000
												CHANNELS 3 Zrotation Xrotation Yrotation
												End site
												{
													OFFSET 0.00000 0.00000 0.00000
												}
											}
										}
									}
									JOINT RightHandRing1
									{
										OFFSET -12.69180 0.00000 -3.06433
										CHANNELS 3 Zrotation Xrotation Yrotation
										JOINT RightHandRing2
										{
											OFFSET -5.62556 0.00000 0.00000
											CHANNELS 3 Zrotation Xrotation Yrotation
											JOINT RightHandRing3
											{
												OFFSET -3.56744 0.00000 0.00000
												CHANNELS 3 Zrotation Xrotation Yrotation
												End site
												{
													OFFSET 0.00000 0.00000 0.00000
												}
											}
										}
									}
									JOINT RightHandPinky1
									{
										OFFSET -11.11390 0.00000 -6.03719
										CHANNELS 3 Zrotation Xrotation Yrotation
										JOINT RightHandPinky2
										{
											OFFSET -4.52789 0.00000 0.00000
											CHANNELS 3 Zrotation Xrotation Yrotation
											JOINT RightHandPinky3
											{
												OFFSET -2.46976 0.00000 0.00000
												CHANNELS 3 Zrotation Xrotation Yrotation
												End site
												{
													OFFSET 0.00000 0.00000 0.00000
												}
											}
										}
									}
								}
							}
						}
					}
					JOINT LeftShoulder
					{
						OFFSET 0.01000 7.91373 5.19711
						CHANNELS 3 Zrotation Xrotation Yrotation
						JOINT LeftArm
						{
							OFFSET 18.41580 0.00000 0.00000
							CHANNELS 3 Zrotation Xrotation Yrotation
							JOINT LeftForeArm
							{
								OFFSET 29.11090 0.00000 0.00000
								CHANNELS 3 Zrotation Xrotation Yrotation
								JOINT LeftHand
								{
									OFFSET 24.65040 0.00000 0.00000
									CHANNELS 3 Zrotation Xrotation Yrotation
									JOINT LeftHandThumb1
									{
										OFFSET 5.35114 -0.85590 3.97906
										CHANNELS 3 Zrotation Xrotation Yrotation
										JOINT LeftHandThumb2
										{
											OFFSET 4.52789 0.00000 0.00000
											CHANNELS 3 Zrotation Xrotation Yrotation
											JOINT LeftHandThumb3
											{
												OFFSET 2.46977 0.00000 0.00000
												CHANNELS 3 Zrotation Xrotation Yrotation
												End site
												{
													OFFSET 0.00000 0.00000 0.00000
												}
											}
										}
									}
									JOINT LeftHandIndex1
									{
										OFFSET 14.26970 0.00000 2.88139
										CHANNELS 3 Zrotation Xrotation Yrotation
										JOINT LeftHandIndex2
										{
											OFFSET 5.48836 0.00000 0.00000
											CHANNELS 3 Zrotation Xrotation Yrotation
											JOINT LeftHandIndex3
											{
												OFFSET 3.01859 0.00000 0.00000
												CHANNELS 3 Zrotation Xrotation Yrotation
												End site
												{
													OFFSET 0.00000 0.00000 0.00000
												}
											}
										}
									}
									JOINT LeftHandMiddle1
									{
										OFFSET 14.26970 0.00000 -0.09147
										CHANNELS 3 Zrotation Xrotation Yrotation
										JOINT LeftHandMiddle2
										{
											OFFSET 6.17440 0.00000 0.00000
											CHANNELS 3 Zrotation Xrotation Yrotation
											JOINT LeftHandMiddle3
											{
												OFFSET 3.56744 0.00000 0.00000
												CHANNELS 3 Zrotation Xrotation Yrotation
												End site
												{
													OFFSET 0.00000 0.00000 0.00000
												}
											}
										}
									}
									JOINT LeftHandRing1
									{
										OFFSET 12.69180 0.00000 -3.06433
										CHANNELS 3 Zrotation Xrotation Yrotation
										JOINT LeftHandRing2
										{
											OFFSET 5.62556 0.00000 0.00000
											CHANNELS 3 Zrotation Xrotation Yrotation
											JOINT LeftHandRing3
											{
												OFFSET 3.56744 0.00000 0.00000
												CHANNELS 3 Zrotation Xrotation Yrotation
												End site
												{
													OFFSET 0.00000 0.00000 0.00000
												}
											}
										}
									}
									JOINT LeftHandPinky1
									{
										OFFSET 11.11390 0.00000 -6.03719
										CHANNELS 3 Zrotation Xrotation Yrotation
										JOINT LeftHandPinky2
										{
											OFFSET 4.52789 0.00000 0.00000
											CHANNELS 3 Zrotation Xrotation Yrotation
											JOINT LeftHandPinky3
											{
												OFFSET 2.46976 0.00000 0.00000
												CHANNELS 3 Zrotation Xrotation Yrotation
												End site
												{
													OFFSET 0.00000 0.00000 0.00000
												}
											}
										}
									}
								}
							}
						}
					}
					JOINT pCube4
					{
						OFFSET 0.00000 10.91090 1.10792
						CHANNELS 3 Zrotation Xrotation Yrotation
						End site
						{
							OFFSET 0.00000 0.00000 0.00000
						}
					}
				}
			}
		}
	}
	JOINT RightUpLeg
	{
		OFFSET -9.98441 0.00000 0.00000
		CHANNELS 3 Zrotation Xrotation Yrotation
		JOINT RightLeg
		{
			OFFSET 0.00000 -42.11790 0.00000
			CHANNELS 3 Zrotation Xrotation Yrotation
			JOINT RightFoot
			{
				OFFSET 0.00000 -45.00020 -0.00001
				CHANNELS 3 Zrotation Xrotation Yrotation
				JOINT RightForeFoot
				{
					OFFSET 0.00000 -3.74820 0.00000
					CHANNELS 3 Zrotation Xrotation Yrotation
					JOINT RightToeBase
					{
						OFFSET 0.00000 0.06325 14.43120
						CHANNELS 3 Zrotation Xrotation Yrotation
						End site
						{
							OFFSET 0.00000 0.00000 0.00000
						}
					}
				}
			}
		}
	}
	JOINT LeftUpLeg
	{
		OFFSET 9.98441 0.00000 0.00000
		CHANNELS 3 Zrotation Xrotation Yrotation
		JOINT LeftLeg
		{
			OFFSET 0.00000 -42.11800 0.00000
			CHANNELS 3 Zrotation Xrotation Yrotation
			JOINT LeftFoot
			{
				OFFSET 0.00000 -45.00070 0.00000
				CHANNELS 3 Zrotation Xrotation Yrotation
				JOINT LeftForeFoot
				{
					OFFSET 0.00000 -3.74824 0.00000
					CHANNELS 3 Zrotation Xrotation Yrotation
					JOINT LeftToeBase
					{
						OFFSET 0.00000 0.06325 14.43110
						CHANNELS 3 Zrotation Xrotation Yrotation
						End site
						{
							OFFSET 0.00000 0.00000 0.00000
						}
					}
				}
			}
		}
	}
}
MOTION
Frames: 4
Frame Time: 0.050000
-0.012570382826352214 -0.020254662687364602 0.027526440203979465 0.03525230362427193 -0.0009343889019386306 0.04524024986563851 -2.0446354528204846 2.820109447199704 -0.8985809167409818 -0.9934359713963888 3.8697165686057176 0.34700739993911567 -1.0218694209522838 -1.3963577277100092 -1.344977808435506 -0.4347053296701982 0.45727218695956456 -0.7796179199014498 -1.1570116180787584 11.612618745522548 2.5614252531665436 -0.067447741524035 -2.059300126115718 4.759932343725355 -0.5004084231835575 -18.69945119731615 0.35895871678671826 -3.36792092636635 1.4134832589702906 -14.440357402735533 73.32236718627823 21.708212532856457 0.3386902949811485 5.148355825036428 5.902387302646237 53.17596121756671 20.392031420781095 -0.08809052899402642 -4.412962073181673 4.578557037845991 -0.17014778391023905 -1.5926179800050375 0.015374407834517967 0.03900244352918485 -56.22853506585032 0.011263661571044232 0.009518931860044117 -56.258115232111386 -38.81359834754708 -0.005747522100628687 0.0040795125436330565 -0.034220460016677876 0.04264018578295006 0.027497432693095382 0.04516279197003521 -0.016646036057573796 -0.03560243842267705 -36.7018665830866 -0.03480281912669574 0.04090406413429709 -0.02445736979869749 0.04638570260600367 -0.04888184561333754 0.004353977897949062 0.01752464177442753 -0.03910623296097403 -19.762664798208846 -0.007602723372893257 0.0174502918006744 -0.04329517947060167 -0.0024216978521007597 -0.022826359227649397 -0.027027428409185303 -0.0086243164142588 0.011593595426360641 24.10217171477312 0.007910429176365112 -0.03315680908061773 28.83045319951355 -0.034316111054520766 0.04339050987017515 28.876853063079793 -0.002224019637217942 0.04716623467462486 6.586908234763599 1.5073823245284939 12.71210080532233 -73.12009739357892 26.027586507983777 -10.850352827374293 -40.545792608389114 2.5465183457780403 -78.65345304602174 -11.921784969393872 -1.734659345607311 1.7696953463446534 -0.45957616696543063 0.027551053206285307 -8.15375101051693 -0.0011639448323104125 -0.021075709598159655 44.61048511682681 0.04196829904821975 -0.037293503618316806 44.58767503372153 12.420917990815774 0.04075558130862003 0.037134148144559266 0.018971257220714056 -0.036999640276462666 -0.025907566541984072 -0.0333143805670526 0.00978294253076239 -0.022406429591034484 11.072203256321439 0.04071624751414594 -0.008660874430014988 -0.03347333594474669 -0.014131140651470631 -0.028882181726903204 0.02929281562925572 0.03967322743757632 0.02962241379180259 4.765375664352905 0.024646860160355534 0.029224606366166812 0.0009946005168599216 0.01633703635230418 0.019819974101211935 0.046493713116684675 0.04802685365509887 -0.026099867384278434 -5.591553617209303 -0.04253182769631681 0.022207651860374697 -6.730159064076166 -0.014749581489856061 -0.012917157980298586 -6.672970938789328 0.0007316385968259093 0.011654039484334598 0.027548355901922745 -0.03659679511514661 -0.026507654536447534 8.002426062019426 3.5068259817061604 -19.204631523210534 -0.008192121915098294 10.389923403938775 -0.020148505970720185 -5.632390067358368 -15.631280884298684 3.147629432799383 -0.03117336397993404 -0.0188980938656504 -0.03262179223024808 -0.008713254063237644 4.71837577789728 0.015377966541337558 12.434349532276078 -8.22322383978142 6.868797327378482 -0.015329223864147024 46.404383488042214 -0.015611620630851145 -4.3108502654406005 -14.782913299297462 -3.8721885304362664 -0.0009354859927811014 0.049851340468691815 -0.019852975900924403 0.030128747658927053 -10.746517296722002 0.02595111397839302 
0.03276391788558704 0.009002429985718761 -0.000329810912148656 0.03127176067104777 0.004001562677135725 -0.009077127588811792 -2.1640574819142464 2.6169789128853527 -0.901759683207692 -0.9788214593173953 3.8445199551796208 0.3751125352349901 -1.0155502736479063 -1.4816471172779262 -1.4648919642041738 -0.45852281513506604 0.4549056178462158 -0.8009705659559851 -1.1759922013207609 11.636328841213905 2.8122689863062442 -0.0022254230420935724 -1.9184143271342513 5.406441765859877 -0.5314791628565013 -18.47617482777857 0.44087319667743474 -3.2032936188120424 1.3833599262585934 -14.385149061483302 73.52743489774548 22.381745884293167 -0.2618549940742784 6.408312044257846 6.623385632183024 52.45384091676473 21.216558861979145 -0.11724652783141212 -4.5001869899231055 4.5273737823853635 -0.09798294754128709 -1.6420842448782156 0.021294664291647156 0.013133632280681413 -56.263159453331426 -0.03165046527742389 0.012804063199025453 -56.19258912889879 -38.75273593819994 0.026411042320907605 0.0006914583774115044 -0.008558843510583194 0.03230908675286127 -0.047811492112113656 -0.02640569496934496 0.024758648217517734 0.017371711815387183 -36.66289369319976 0.016230677726503998 -0.03278282249976295 -0.00950839685366781 0.03421068331612799 0.031206389494115066 0.035175591260988064 -0.00199551874343592 -0.022890575042906036 -19.773771679184033 -0.015218907293964874 -0.01223129647802519 0.012018619776884653 0.0005404781772104675 0.014748454891449601 -0.03148653286623751 0.020576066376483598 -0.031605726310542766 24.07468766592171 0.009571889723757524 -0.008518884705675439 28.892336180728865 0.048671280628687634 0.017541060749648764 28.873928015853068 0.01394116471016312 0.0176612147529066 6.712563403186507 1.5262832012769356 12.70904837677173 -73.2445233647346 25.76450272575432 -11.039772196466751 -45.0085518027691 2.9119282185639146 -82.31573359578614 -12.315334760542898 -2.017617847194903 1.763811052439496 -0.4451261408083906 0.09215872503285627 -8.079008119120862 0.021648399946039978 0.007436705584038636 44.52648559644241 -0.023173641443658275 0.007481352444641222 44.520829658804416 12.492301869275613 0.04174088101633287 -0.03837695420961334 0.03631248518644095 0.005573175201198723 -0.012451374470625916 0.0030063282808834775 0.03749256329884492 -0.007314428807711632 11.108526695053156 0.0002749630151274505 0.024201805695182373 -0.018434704847688485 0.02334533938685008 0.030703391528560012 0.030742955524128507 0.03708951573640912 -0.032357797954089766 4.72995194311166 -0.007399543407079669 0.01697753790614145 0.026095971567542207 -0.008573474708966276 -0.04301396904192413 0.010500699979229571 0.028791561573392948 0.02074289386824747 -5.646172701066889 -0.008204155539721843 0.01995380773194609 -6.760368324142336 -0.03770247695096375 0.014826120245572956 -6.703510628087037 -0.04310537464045063 0.01743133504158478 -0.012975151218864035 0.01475260388983521 -0.0073141219699353055 8.0618472466523 3.500891053677532 -19.234682154288738 -0.017590098154016163 10.373957807192465 0.0035293020321760186 -5.65738117992657 -15.624683063984271 3.230158898726719 0.02776131104704421 -0.024901222388969618 -0.0011177506031683358 0.04962320514134378 4.654006166356745 0.012654288394026374 12.432214995831774 -8.231720230820299 6.88201547614467 -0.009183494671823902 46.39500089166226 -0.0030827405868495217 -4.295223872902059 -14.751516345217173 -3.873214650187857 -0.019361837542533462 -0.03539188991231399 0.030773413876931978 0.03339814453694502 -10.730064699092063 -0.03420003543190633 
0.04161769875416826 0.013004403065845025 -0.03368572101409679 0.03285676280631887 -0.0048916785139223535 -0.011661150179726935 -2.358698759762277 2.5617915249596726 -0.8413478296532447 -1.0069603894701742 3.824550201633943 0.40987936745676445 -1.0634368566804349 -1.538458172584244 -1.5282152263508015 -0.470161011495672 0.44808061761226364 -0.8508749966228106 -1.2663626704838138 11.699609883166799 2.899990690824691 0.0007502112856032079 -1.8175062096895542 5.776844670065932 -0.6305953838716336 -18.09909671782857 0.442995795274861 -2.887349568263607 1.3368413797545209 -14.30706430461978 73.34804632683556 22.134735908999264 -0.6806255692977597 7.347784078695416 7.072477836350062 51.81547630046843 22.078601970707204 -0.1055903593423228 -4.568047885619731 4.514249860565634 -0.14545946004835283 -1.5716801157015445 -0.04584467902998742 -0.022339458164448975 -56.20145911602377 0.038943211006612966 -0.012819424582494228 -56.2790480358073 -38.74996146167984 0.03491559952271711 -0.04967300266812596 -0.042826407121101376 0.04406188953115986 -0.040074273929282325 -0.023599219017538805 -0.012399716723559141 0.014671551463777445 -36.70604607697532 0.03621523493536711 -0.023803521193045418 0.04750148892199214 -0.011065066586522372 -0.01435048953445436 -0.03589449475318889 0.004888391804029659 -0.010099632357556856 -19.722857911463723 0.0299916658249183 0.0034026438277130673 0.04039103505461459 0.0024004296184165276 -0.04224594879950962 0.006621069110200599 -0.03693579809695887 0.048482546890547165 24.06703942458407 -0.002039722409683892 0.02063328471016672 28.850445455029696 -0.00419043361995286 -0.0014962592421889505 28.83430744826677 -0.031969699348903084 0.04845465634318623 6.595002370078735 1.5112577018308737 12.62423256034603 -72.9682738355597 25.34144685219204 -11.086641420812942 -48.610071316641246 2.781493348160897 -85.21465171818693 -12.551268224557884 -2.096145231607575 1.550961836723851 -0.47187120508801295 0.07680625010930064 -8.099118387392974 0.036123398835580876 0.0064961072294907165 44.56608231376938 0.04848525121384687 -0.02274373526250848 44.595056231599784 12.491212966334588 0.04499777660651068 0.030765214522884218 0.04542938676975724 0.03157291699485721 -0.006987027891560807 0.011441080667385427 0.022065391387657358 -0.001774492021454216 11.10223654458512 0.0224898438125716 -0.027908016011867424 -0.008118804125647115 0.004714807493974925 0.0353412521788047 0.038368680107229755 -0.013964191372133098 -0.027299285135985504 4.748851078760243 0.04081751046794385 -0.003640132562124965 -0.030427388913823353 -0.026576122646336565 -0.02719277257249084 0.015872535139466164 0.008575608950421573 -0.013208894027911167 -5.574641330911289 -0.03978181978625088 0.04010686407890239 -6.708458698373373 0.03795495227653915 -0.021991363821691805 -6.745660856640839 0.0020027523601855836 0.009078209425546295 -0.020989978054983087 -0.03822613534840818 -0.02688571607113944 8.030312340679757 3.5290374283534116 -19.21440573856333 -0.023647515743103205 10.351447417395862 -0.001740824389244798 -5.670541377552042 -15.702386821035237 3.196597905038758 -0.005012450672423049 0.0065717940540219585 0.007864263775192327 0.03856247174013199 4.718993414137148 -0.023884977550631344 12.481002659504927 -8.23682124244612 6.913069624984403 -0.0033161593029185704 46.36688387129107 0.011027961134633269 -4.276596450174057 -14.777831683509177 -3.861140767524635 -0.023933323250084137 -0.04126225992279421 0.016619904161407243 -0.0046635735086792 -10.721501476739508 0.013350097951807525 
0.021477589025879838 0.03315148993649835 0.037390964237065866 -0.03343458400897333 0.03934686126705743 0.0025117882833898823 -2.494242128010214 2.4180560394538966 -0.8176732159099827 -0.9475345306380267 3.7992069951858496 0.3891811156302963 -0.9850814970808376 -1.5552594641295896 -1.65024450824573 -0.5028823494171817 0.4664044605345371 -0.8285105096684541 -1.2387977085565576 11.697182402381245 3.0518036749635185 0.019630947352371524 -1.6368345176825432 6.083484988860316 -0.6406564422379615 -17.8348878938276 0.5195483633460731 -2.7283980980859828 1.2357765343566307 -14.225520295477754 73.06046071981199 22.028684219518947 -1.016120575702909 7.700286678082983 7.227543578010678 51.35176964239151 22.85156497631113 -0.02082220087519794 -4.600101726245595 4.550796360080569 -0.17198189226617774 -1.6309647344244833 -0.005273412905107661 0.019454689731555355 -56.25334131118207 0.006397576060258394 -0.03947077447791222 -56.19343529386475 -38.81593373834025 0.030234937560017574 0.023118510400569153 0.014071771981537052 0.017656281360629647 0.043939460021983574 0.013346816010751994 0.013277712577987455 -0.02454018356875133 -36.69004487273579 0.02678015069380631 -0.041907223002066556 0.012399352436626885 0.03149078388554311 0.04863281528667056 0.03713066480870768 -0.04391974787950399 -0.00848509775117805 -19.741482907933616 -0.0011447771680789158 -0.0106011838886011 -0.003549976314177152 0.035116607888598494 -0.03414998383147213 0.012835405062127308 -0.01784247072522109 -0.03813464458758592 24.023242437894517 -0.03532731755895028 0.0034095034220042193 28.88460625973813 0.008653177951310334 -0.0370623600020783 28.886559183283566 0.0116851890843686 0.0076526669960705765 6.5159168653132244 1.4983946788130635 12.641032484921734 -72.64716724386062 25.129129282906103 -11.004212299963022 -50.31592785217964 2.4906152993761834 -86.51481581093816 -12.43244665021801 -2.0254466094986103 1.4453292263475304 -0.49651815917767894 0.033377966339201495 -8.15500290762423 -0.013208975794564218 0.029703789559321857 44.55037855891023 0.01364730768919833 -0.03661476559550402 44.56956415288653 12.448496126689632 0.0074916802792418585 -0.0010008794353313945 0.009671761315828975 0.0016971752563694844 0.00871911342089301 0.021279193161837493 0.030171515909128192 0.01628577266916806 11.082578099320692 -0.047472123082619416 -0.031243039504454433 -0.030300161152078245 -0.0018188600121846925 0.017157340517462465 -0.03479666068288255 -0.03250778745082872 0.019659997957695075 4.75059216830637 0.029044723967297945 0.043154610750120566 0.019964918438091762 0.04998614356065495 0.016420370721079623 -0.039789008271886445 0.0340285088388443 0.017994233889040482 -5.616710180494048 -0.0010251196873266246 0.020403069485691025 -6.701375387376454 0.029577613270490122 0.004081200561732507 -6.6944560398840585 0.024553900357771292 0.02869699729043306 -0.04524631858050828 0.025329075693687593 -0.0009448929781268329 8.016561633050184 3.4888390341976034 -19.194142566409106 -0.023893398201589217 10.38459176809783 -0.03228978960220551 -5.6200605014068135 -15.635539788981081 3.227666740859993 0.023009128463956054 0.04819619921612985 0.013251290910671426 0.02189859699140393 4.6790368328916205 -0.0242079317454642 12.450787334468295 -8.216655993256758 6.870226253423201 -0.03307927034663603 46.40601445679446 0.03105529500791247 -4.296815741662503 -14.774604281186663 -3.795495048575509 0.03193855626756158 0.01569025166731077 0.02104039066703383 0.023222932740183364 -10.75331529407313 0.046927660060179205 
